<svg viewBox="0 0 28 28" fill="none" xmlns="http://www.w3.org/2000/svg"><path d="M5.493 18.62l5.51-3.09.092-.268-.093-.149h-.268l-.921-.057-3.148-.085-2.73-.113-2.646-.142-.665-.142L0 13.752l.064-.41.56-.376.802.07 1.771.121 2.659.184 1.928.113 2.857.297h.454l.064-.184-.155-.113-.12-.114-2.752-1.863-2.978-1.969-1.56-1.133-.843-.575-.425-.538-.184-1.176.766-.842 1.029.07.262.07 1.042.8 2.226 1.722 2.906 2.14.425.352.17-.12.021-.085-.191-.32-1.58-2.855L7.53 4.114 6.78 2.91l-.2-.722a3.51 3.51 0 01-.12-.85L7.332.155 7.814 0l1.163.155.49.425.722 1.652 1.17 2.6 1.816 3.535.531 1.049.284.971.105.297h.184v-.17l.15-1.992.275-2.445.269-3.146.092-.886.44-1.062.87-.575.681.325.56.801-.078.518-.332 2.162-.653 3.386-.425 2.267h.248l.283-.283 1.148-1.523 1.929-2.41.85-.955.993-1.057.637-.502h1.205l.886 1.317-.397 1.36-1.24 1.572-1.029 1.333-1.474 1.984-.921 1.587.085.127.22-.021 3.33-.709 1.8-.325 2.149-.368.972.453.105.461-.382.943-2.297.567-2.694.539-4.012.948-.05.036.057.07 1.808.17.773.042h1.893l3.524.262.92.609.553.744-.093.567-1.418.722-1.913-.454-4.466-1.062-1.532-.381h-.211v.126l1.276 1.247 2.339 2.111 2.928 2.721.15.673-.376.53-.397-.056-2.574-1.935-.992-.87-2.248-1.892h-.15v.198l.518.758 2.736 4.11.142 1.26-.199.41-.709.248-.779-.142-1.601-2.247-1.653-2.53-1.332-2.268-.163.093-.787 8.467-.368.433-.851.325-.71-.538-.376-.872.377-1.721.454-2.247.368-1.785.333-2.219.198-.737-.013-.049-.162.02-1.674 2.297-2.545 3.437-2.013 2.154-.482.19-.836-.432.077-.773.468-.688 2.786-3.543 1.681-2.195 1.086-1.268-.008-.183h-.064L4.82 21.65l-1.318.17-.568-.53.07-.872.269-.284 2.225-1.53-.007.008.002.007z" fill="#D97757"/></svg>